<svg height="512" viewBox="0 0 64 64" width="512" xmlns="http://www.w3.org/2000/svg"><g id="Layer_56" data-name="Layer 56"><path d="m6 53.01 34.09-35.09h-32.84l-3.17 3.78v28.52z" fill="#78b9eb"/><g fill="#006df0"><path d="m42.88 20.07 10.53-10.53a2 2 0 0 0 -2.82-2.83l-10 10h-26.59v-3.23h7.63a2 2 0 0 0 0-4h-9.63a2 2 0 0 0 -2 2v5.21h-1.84a6.16 6.16 0 0 0 -6.16 6.15v25.52a6.16 6.16 0 0 0 2.22 4.72l-3.4 3.4a2 2 0 1 0 2.82 2.83l39.18-39.18zm-36.88 28.29v-25.52a2.16 2.16 0 0 1 2.16-2.15h28.45l-29.54 29.53a2.16 2.16 0 0 1 -1.07-1.86z"/><path d="m61.19 23a2 2 0 0 0 -1.76-.31l-7.43 2.23v-2.08a6.06 6.06 0 0 0 -1.8-4.33 2 2 0 0 0 -2.82 2.82 2.14 2.14 0 0 1 .62 1.51v25.52a2.16 2.16 0 0 1 -2.16 2.16h-29.65a2 2 0 0 0 0 4h29.65a6.16 6.16 0 0 0 6.16-6.16v-1.94l7.43 2.23a2.18 2.18 0 0 0 .57.08 2 2 0 0 0 1.19-.4 2 2 0 0 0 .81-1.6v-22.13a2 2 0 0 0 -.81-1.6zm-3.19 21-6-1.8v-13.11l6-1.8z"/></g></g></svg>